<mxfile host="app.diagrams.net" modified="2023-10-16T01:26:59.395Z" agent="Mozilla/5.0 (Windows NT 10.0; Win64; x64; rv:109.0) Gecko/20100101 Firefox/118.0" etag="lM0LaC6UnHUFtYslg5Ua" version="22.0.4" type="github">
  <diagram id="C5RBs43oDa-KdzZeNtuy" name="Page-1">
    <mxGraphModel dx="1114" dy="602" grid="1" gridSize="10" guides="1" tooltips="1" connect="1" arrows="1" fold="1" page="1" pageScale="1" pageWidth="827" pageHeight="1169" math="0" shadow="0">
      <root>
        <mxCell id="WIyWlLk6GJQsqaUBKTNV-0" />
        <mxCell id="WIyWlLk6GJQsqaUBKTNV-1" parent="WIyWlLk6GJQsqaUBKTNV-0" />
        <mxCell id="zarUDm_xgDWj0c6WavQA-3" style="edgeStyle=orthogonalEdgeStyle;rounded=0;orthogonalLoop=1;jettySize=auto;html=1;" edge="1" parent="WIyWlLk6GJQsqaUBKTNV-1" source="zarUDm_xgDWj0c6WavQA-1" target="zarUDm_xgDWj0c6WavQA-4">
          <mxGeometry relative="1" as="geometry">
            <mxPoint x="390" y="240" as="targetPoint" />
          </mxGeometry>
        </mxCell>
        <mxCell id="zarUDm_xgDWj0c6WavQA-1" value="" style="ellipse;whiteSpace=wrap;html=1;" vertex="1" parent="WIyWlLk6GJQsqaUBKTNV-1">
          <mxGeometry x="300" y="90" width="180" height="100" as="geometry" />
        </mxCell>
        <mxCell id="zarUDm_xgDWj0c6WavQA-6" style="edgeStyle=orthogonalEdgeStyle;rounded=0;orthogonalLoop=1;jettySize=auto;html=1;exitX=0.5;exitY=1;exitDx=0;exitDy=0;" edge="1" parent="WIyWlLk6GJQsqaUBKTNV-1" source="zarUDm_xgDWj0c6WavQA-4">
          <mxGeometry relative="1" as="geometry">
            <mxPoint x="390" y="330" as="targetPoint" />
          </mxGeometry>
        </mxCell>
        <mxCell id="zarUDm_xgDWj0c6WavQA-4" value="" style="shape=parallelogram;perimeter=parallelogramPerimeter;whiteSpace=wrap;html=1;fixedSize=1;" vertex="1" parent="WIyWlLk6GJQsqaUBKTNV-1">
          <mxGeometry x="310" y="210" width="160" height="80" as="geometry" />
        </mxCell>
        <mxCell id="zarUDm_xgDWj0c6WavQA-23" style="edgeStyle=orthogonalEdgeStyle;rounded=0;orthogonalLoop=1;jettySize=auto;html=1;exitX=0.5;exitY=1;exitDx=0;exitDy=0;" edge="1" parent="WIyWlLk6GJQsqaUBKTNV-1" source="zarUDm_xgDWj0c6WavQA-21">
          <mxGeometry relative="1" as="geometry">
            <mxPoint x="400" y="720" as="targetPoint" />
          </mxGeometry>
        </mxCell>
        <mxCell id="zarUDm_xgDWj0c6WavQA-21" value="" style="shape=parallelogram;html=1;strokeWidth=2;perimeter=parallelogramPerimeter;whiteSpace=wrap;rounded=1;arcSize=12;size=0.23;" vertex="1" parent="WIyWlLk6GJQsqaUBKTNV-1">
          <mxGeometry x="310" y="600" width="180" height="60" as="geometry" />
        </mxCell>
        <mxCell id="zarUDm_xgDWj0c6WavQA-24" value="" style="verticalLabelPosition=bottom;verticalAlign=top;html=1;shape=mxgraph.flowchart.on-page_reference;" vertex="1" parent="WIyWlLk6GJQsqaUBKTNV-1">
          <mxGeometry x="330" y="720" width="140" height="70" as="geometry" />
        </mxCell>
        <mxCell id="zarUDm_xgDWj0c6WavQA-26" value="start" style="text;html=1;strokeColor=none;fillColor=none;align=center;verticalAlign=middle;whiteSpace=wrap;rounded=0;" vertex="1" parent="WIyWlLk6GJQsqaUBKTNV-1">
          <mxGeometry x="340" y="120" width="100" height="40" as="geometry" />
        </mxCell>
        <mxCell id="zarUDm_xgDWj0c6WavQA-36" value="masukan bilangan bulat" style="text;html=1;strokeColor=none;fillColor=none;align=center;verticalAlign=middle;whiteSpace=wrap;rounded=0;" vertex="1" parent="WIyWlLk6GJQsqaUBKTNV-1">
          <mxGeometry x="340" y="210" width="100" height="70" as="geometry" />
        </mxCell>
        <mxCell id="zarUDm_xgDWj0c6WavQA-37" value="" style="rounded=1;whiteSpace=wrap;html=1;absoluteArcSize=1;arcSize=14;strokeWidth=2;" vertex="1" parent="WIyWlLk6GJQsqaUBKTNV-1">
          <mxGeometry x="300" y="330" width="190" height="90" as="geometry" />
        </mxCell>
        <mxCell id="zarUDm_xgDWj0c6WavQA-41" style="edgeStyle=orthogonalEdgeStyle;rounded=0;orthogonalLoop=1;jettySize=auto;html=1;" edge="1" parent="WIyWlLk6GJQsqaUBKTNV-1" source="zarUDm_xgDWj0c6WavQA-39">
          <mxGeometry relative="1" as="geometry">
            <mxPoint x="395" y="460" as="targetPoint" />
          </mxGeometry>
        </mxCell>
        <mxCell id="zarUDm_xgDWj0c6WavQA-39" value="bilangan dibagi 2 dengan operasi sisa bagi" style="text;html=1;strokeColor=none;fillColor=none;align=center;verticalAlign=middle;whiteSpace=wrap;rounded=0;" vertex="1" parent="WIyWlLk6GJQsqaUBKTNV-1">
          <mxGeometry x="310" y="330" width="170" height="80" as="geometry" />
        </mxCell>
        <mxCell id="zarUDm_xgDWj0c6WavQA-47" style="edgeStyle=orthogonalEdgeStyle;rounded=0;orthogonalLoop=1;jettySize=auto;html=1;" edge="1" parent="WIyWlLk6GJQsqaUBKTNV-1" source="zarUDm_xgDWj0c6WavQA-42">
          <mxGeometry relative="1" as="geometry">
            <mxPoint x="520" y="515" as="targetPoint" />
          </mxGeometry>
        </mxCell>
        <mxCell id="zarUDm_xgDWj0c6WavQA-49" style="edgeStyle=orthogonalEdgeStyle;rounded=0;orthogonalLoop=1;jettySize=auto;html=1;" edge="1" parent="WIyWlLk6GJQsqaUBKTNV-1" source="zarUDm_xgDWj0c6WavQA-42">
          <mxGeometry relative="1" as="geometry">
            <mxPoint x="395" y="600" as="targetPoint" />
          </mxGeometry>
        </mxCell>
        <mxCell id="zarUDm_xgDWj0c6WavQA-42" value="" style="rhombus;whiteSpace=wrap;html=1;" vertex="1" parent="WIyWlLk6GJQsqaUBKTNV-1">
          <mxGeometry x="320" y="460" width="150" height="110" as="geometry" />
        </mxCell>
        <mxCell id="zarUDm_xgDWj0c6WavQA-45" value="? sisa bagi =0" style="text;html=1;strokeColor=none;fillColor=none;align=center;verticalAlign=middle;whiteSpace=wrap;rounded=0;" vertex="1" parent="WIyWlLk6GJQsqaUBKTNV-1">
          <mxGeometry x="350" y="490" width="90" height="50" as="geometry" />
        </mxCell>
        <mxCell id="zarUDm_xgDWj0c6WavQA-53" style="edgeStyle=orthogonalEdgeStyle;rounded=0;orthogonalLoop=1;jettySize=auto;html=1;exitX=1;exitY=0.5;exitDx=0;exitDy=0;" edge="1" parent="WIyWlLk6GJQsqaUBKTNV-1" source="zarUDm_xgDWj0c6WavQA-48">
          <mxGeometry relative="1" as="geometry">
            <mxPoint x="400" y="690" as="targetPoint" />
            <Array as="points">
              <mxPoint x="676" y="520" />
              <mxPoint x="676" y="521" />
              <mxPoint x="700" y="521" />
            </Array>
          </mxGeometry>
        </mxCell>
        <mxCell id="zarUDm_xgDWj0c6WavQA-48" value="" style="shape=parallelogram;html=1;strokeWidth=2;perimeter=parallelogramPerimeter;whiteSpace=wrap;rounded=1;arcSize=12;size=0.23;" vertex="1" parent="WIyWlLk6GJQsqaUBKTNV-1">
          <mxGeometry x="510" y="490" width="160" height="60" as="geometry" />
        </mxCell>
        <mxCell id="zarUDm_xgDWj0c6WavQA-50" value="genap" style="text;html=1;strokeColor=none;fillColor=none;align=center;verticalAlign=middle;whiteSpace=wrap;rounded=0;" vertex="1" parent="WIyWlLk6GJQsqaUBKTNV-1">
          <mxGeometry x="540" y="500" width="90" height="40" as="geometry" />
        </mxCell>
        <mxCell id="zarUDm_xgDWj0c6WavQA-51" value="ganjil" style="text;html=1;strokeColor=none;fillColor=none;align=center;verticalAlign=middle;whiteSpace=wrap;rounded=0;" vertex="1" parent="WIyWlLk6GJQsqaUBKTNV-1">
          <mxGeometry x="350" y="615" width="100" height="35" as="geometry" />
        </mxCell>
        <mxCell id="zarUDm_xgDWj0c6WavQA-52" value="selesai" style="text;html=1;strokeColor=none;fillColor=none;align=center;verticalAlign=middle;whiteSpace=wrap;rounded=0;" vertex="1" parent="WIyWlLk6GJQsqaUBKTNV-1">
          <mxGeometry x="360" y="730" width="80" height="40" as="geometry" />
        </mxCell>
      </root>
    </mxGraphModel>
  </diagram>
</mxfile>
